<?xml version="1.0" standalone="no"?><!DOCTYPE svg PUBLIC "-//W3C//DTD SVG 1.1//EN" "http://www.w3.org/Graphics/SVG/1.1/DTD/svg11.dtd"><svg t="1664806456618" class="icon" viewBox="0 0 1024 1024" version="1.1" xmlns="http://www.w3.org/2000/svg" p-id="5055" xmlns:xlink="http://www.w3.org/1999/xlink" width="200" height="200"><path d="M558.27 1024c157.512 0 301.964-71.608 397.688-189.55 56.54-69.662-5.116-171.444-92.498-154.802-164.696 31.366-316.544-94.536-316.544-261.584 0-96.848 52.12-184.584 134.868-231.672 77.49-44.1 57.998-161.576-30.044-177.838A515.872 515.872 0 0 0 558.27 0c-282.72 0-512 229.15-512 512 0 282.72 229.152 512 512 512z m0-928c25.97 0 51.378 2.402 76.032 6.956-109.52 62.326-183.386 180.084-183.386 315.108 0 227.696 207.282 398.4 430.504 355.888C805.148 867.928 688.732 928 558.27 928c-229.75 0-416-186.25-416-416s186.25-416 416-416z" p-id="5056"></path></svg>